<?xml version="1.0" standalone="no"?>
<!DOCTYPE svg PUBLIC "-//W3C//DTD SVG 20010904//EN"
 "http://www.w3.org/TR/2001/REC-SVG-20010904/DTD/svg10.dtd">
<svg version="1.0" xmlns="http://www.w3.org/2000/svg"
 width="237.000000pt" height="237.000000pt" viewBox="0 0 237.000000 237.000000"
 preserveAspectRatio="xMidYMid meet">
<metadata>
Created by potrace 1.11, written by Peter Selinger 2001-2013
</metadata>
<g transform="translate(0.000000,237.000000) scale(0.100000,-0.100000)"
fill="#000000" stroke="none">
<path d="M9 1758 c-1 -28 0 -1138 0 -1155 1 -10 96 -13 441 -13 l440 0 1 23
c1 23 1 100 0 127 -1 13 -46 15 -344 15 l-342 0 -3 177 -2 176 255 -1 c140 0
258 3 261 6 5 5 7 50 5 125 l-1 32 -260 0 -260 0 0 173 0 172 322 -1 c178 0
329 2 336 4 8 3 12 29 12 83 l0 79 -430 0 -430 0 -1 -22z"/>
<path d="M1160 1185 l0 -595 90 0 89 0 -4 468 c-2 257 -6 479 -8 495 -2 15 -1
27 2 27 6 0 27 -59 141 -385 23 -66 70 -199 105 -295 34 -96 73 -205 85 -242
l23 -68 81 0 81 0 68 193 c37 105 116 328 174 494 60 170 110 298 114 291 4
-7 5 -16 2 -22 -3 -5 -8 -222 -10 -483 l-4 -473 91 0 90 0 0 595 0 596 -141
-3 -142 -3 -53 -155 c-76 -218 -219 -651 -245 -740 -12 -41 -23 -70 -25 -65
-2 6 -22 73 -44 150 -23 77 -83 262 -135 410 -51 149 -103 300 -116 338 l-23
67 -143 0 -143 0 0 -595z"/>
</g>
</svg>
